<?xml version="1.0" standalone="no"?>
<!DOCTYPE svg PUBLIC "-//W3C//DTD SVG 20010904//EN"
 "http://www.w3.org/TR/2001/REC-SVG-20010904/DTD/svg10.dtd">
<svg version="1.0" xmlns="http://www.w3.org/2000/svg"
 width="666.000000pt" height="375.000000pt" viewBox="0 0 666.000000 375.000000"
 preserveAspectRatio="xMidYMid meet">

<g transform="translate(0.000000,375.000000) scale(0.100000,-0.100000)"
fill="#000000" stroke="none">
<path d="M1080 2229 c-30 -5 -100 -25 -155 -44 -55 -19 -121 -35 -145 -36 -25
0 -63 -3 -85 -7 -35 -7 -40 -11 -42 -37 -1 -17 -5 -49 -9 -71 -3 -26 -1 -51 6
-65 10 -17 10 -24 1 -27 -21 -7 -11 -19 31 -38 43 -19 88 -57 88 -74 0 -12
938 -12 995 -1 22 5 34 9 27 10 -7 0 -10 6 -7 11 3 6 39 11 78 11 40 1 86 4
102 8 27 6 30 10 31 46 1 22 5 50 9 62 6 18 -1 27 -41 56 -75 55 -205 86 -356
87 -59 0 -79 6 -162 45 -133 63 -251 83 -366 64z m148 -34 c49 -25 113 -75 98
-75 -4 0 -25 13 -45 29 -56 44 -75 51 -139 51 -87 0 -122 -9 -122 -31 0 -21
-10 -23 -61 -12 -33 7 -30 8 51 34 109 35 157 36 218 4z m25 18 c-7 -2 -19 -2
-25 0 -7 3 -2 5 12 5 14 0 19 -2 13 -5z m-271 -79 c42 -6 44 -8 40 -35 -3 -22
-10 -29 -26 -29 -53 0 -62 -61 -16 -105 28 -27 38 -29 133 -35 l102 -7 -94 -1
c-52 -1 -92 -5 -88 -8 3 -4 86 -12 184 -18 l178 -12 -226 1 -227 0 0 30 c-1
64 -25 117 -62 136 -75 40 -138 14 -172 -71 l-14 -35 -18 27 c-15 23 -16 33
-6 62 6 20 10 48 8 63 -2 20 2 29 15 31 9 2 17 0 17 -5 0 -4 55 -6 122 -4 78
2 114 6 98 11 -32 10 -6 12 52 4z m253 -32 c94 -5 120 -10 123 -22 2 -13 -14
-14 -115 -9 -65 3 -130 12 -145 19 -24 12 -30 11 -48 -5 -17 -16 -20 -16 -20
-2 0 38 10 45 48 36 20 -5 91 -12 157 -17z m464 -8 c41 -5 58 -10 49 -16 -19
-12 34 -53 90 -69 35 -10 45 -10 52 1 4 7 13 9 19 6 21 -13 11 5 -16 30 l-28
26 40 -23 c47 -26 75 -49 75 -61 0 -4 -24 -8 -54 -8 -45 0 -58 -4 -70 -22 -31
-44 -17 -67 42 -69 42 -2 -44 -18 -99 -18 l-46 -1 8 43 c11 58 2 87 -39 125
-34 32 -48 36 -107 32 -27 -2 -95 -35 -95 -46 0 -3 4 -3 10 1 5 3 3 -7 -5 -22
-8 -15 -15 -38 -15 -50 0 -15 -6 -23 -18 -23 -23 0 -42 19 -42 42 0 10 -18 36
-40 58 -66 66 -60 70 94 70 73 0 161 -3 195 -6z m-366 -54 c28 -8 37 -16 37
-33 0 -21 -3 -22 -87 -20 -85 2 -86 1 -33 -8 30 -5 70 -12 88 -15 17 -3 32
-10 32 -16 0 -8 -41 -9 -135 -6 -148 6 -161 11 -186 70 -10 25 -10 32 2 40 18
12 231 3 282 -12z m462 10 c3 -6 -1 -7 -9 -4 -18 7 -21 14 -7 14 6 0 13 -4 16
-10z m-737 -98 c-15 -6 -56 26 -63 49 -5 16 -2 26 10 35 16 12 20 9 40 -34 12
-26 18 -49 13 -50z m342 36 c0 -5 -4 -8 -10 -8 -5 0 -10 10 -10 23 0 18 2 19
10 7 5 -8 10 -18 10 -22z m558 -25 c-10 -2 -26 -2 -35 0 -10 3 -2 5 17 5 19 0
27 -2 18 -5z m-553 -13 c3 -5 -1 -10 -9 -10 -9 0 -16 5 -16 10 0 6 4 10 9 10
6 0 13 -4 16 -10z m240 0 c3 -5 1 -10 -4 -10 -6 0 -11 5 -11 10 0 6 2 10 4 10
3 0 8 -4 11 -10z m-332 -37 c-13 -2 -35 -2 -50 0 -16 2 -5 4 22 4 28 0 40 -2
28 -4z m197 -3 c0 -5 -9 -10 -20 -10 -11 0 -20 5 -20 10 0 6 9 10 20 10 11 0
20 -4 20 -10z m451 -7 c-11 -5 -11 -7 0 -14 10 -6 8 -9 -7 -9 -12 0 -24 7 -28
15 -4 11 2 15 22 14 15 0 21 -3 13 -6z m-384 -60 c4 -10 -61 -12 -299 -9 -167
2 -304 4 -306 5 -2 1 0 6 3 11 10 16 597 9 602 -7z"/>
<path d="M4190 1995 c0 -8 5 -15 10 -15 6 0 10 -50 10 -130 l0 -130 28 -6 c15
-3 33 -8 41 -10 7 -2 30 0 51 6 49 13 65 50 61 143 -1 15 -12 39 -27 54 -22
22 -31 24 -65 19 l-39 -6 0 45 c0 45 0 45 -35 45 -24 0 -35 -5 -35 -15z m138
-117 c7 -7 12 -35 12 -64 0 -57 -15 -78 -52 -72 -21 3 -23 9 -26 67 -2 45 1
67 10 72 19 12 42 11 56 -3z"/>
<path d="M4446 1994 c-7 -19 10 -44 29 -44 19 0 36 25 29 44 -3 9 -16 16 -29
16 -13 0 -26 -7 -29 -16z"/>
<path d="M4550 1996 c0 -8 7 -16 15 -20 12 -4 15 -27 15 -116 0 -89 -3 -112
-15 -116 -8 -4 -15 -12 -15 -20 0 -10 14 -14 50 -14 37 0 50 4 50 14 0 8 -4
18 -10 21 -6 4 -10 60 -10 136 l0 129 -40 0 c-28 0 -40 -4 -40 -14z"/>
<path d="M4700 1986 c0 -29 28 -42 48 -22 20 20 8 46 -23 46 -20 0 -25 -5 -25
-24z"/>
<path d="M5170 1995 c0 -8 7 -15 15 -15 9 0 15 -9 15 -24 0 -20 -6 -24 -42
-29 -48 -6 -82 -40 -92 -90 -7 -34 8 -100 27 -114 23 -19 63 -22 90 -8 15 7
27 10 27 4 0 -5 16 -9 35 -9 36 0 50 22 20 34 -12 4 -15 29 -15 136 l0 130
-40 0 c-29 0 -40 -4 -40 -15z m31 -130 c0 -14 1 -41 1 -60 0 -19 -1 -39 -1
-44 -2 -16 -39 -23 -61 -11 -16 8 -20 21 -20 60 0 55 18 80 56 80 19 0 24 -5
25 -25z"/>
<path d="M2266 1969 c-35 -27 -47 -61 -47 -126 0 -96 46 -140 145 -136 58 1
68 10 64 54 -4 43 -38 56 -38 15 0 -24 -3 -26 -44 -26 -54 0 -67 15 -74 80 -6
63 11 105 49 120 34 15 59 7 66 -20 3 -11 14 -20 24 -20 15 0 19 7 19 34 0 40
-11 46 -84 46 -39 0 -61 -6 -80 -21z"/>
<path d="M3620 1976 c0 -9 5 -16 11 -16 16 0 7 -202 -9 -208 -7 -2 -12 -12
-12 -23 0 -16 7 -19 45 -19 38 0 45 3 45 20 0 11 -4 20 -10 20 -11 0 -13 46
-3 103 l6 39 30 -76 c24 -61 34 -76 51 -76 17 0 27 15 51 78 l30 77 9 -69 c7
-59 6 -70 -8 -78 -9 -5 -16 -16 -16 -23 0 -11 13 -15 50 -15 43 0 50 3 50 19
0 11 -6 21 -12 23 -17 6 -25 208 -9 208 6 0 11 7 11 16 0 12 -9 14 -42 12
l-41 -3 -33 -88 c-18 -49 -34 -91 -37 -93 -2 -2 -19 38 -38 88 l-34 93 -42 3
c-34 2 -43 0 -43 -12z"/>
<path d="M2953 1935 c-37 -39 -40 -45 -18 -45 12 0 15 -14 15 -64 0 -36 4 -76
9 -89 11 -27 48 -41 87 -31 32 8 29 40 -3 36 -30 -4 -45 28 -41 91 3 48 5 52
31 55 15 2 27 9 27 17 0 8 -12 15 -27 17 -20 2 -29 9 -31 26 -4 29 -11 27 -49
-13z"/>
<path d="M2533 1920 c-31 -13 -63 -68 -63 -108 0 -79 63 -126 136 -102 24 8
34 17 31 28 -3 18 -5 18 -49 7 -20 -5 -32 -1 -49 16 l-23 23 49 14 c65 18 75
28 75 68 0 52 -49 77 -107 54z m64 -46 c6 -18 -26 -44 -53 -44 -28 0 -30 7 -8
38 16 24 54 27 61 6z"/>
<path d="M2775 1921 c-11 -4 -39 -6 -62 -3 -34 4 -43 1 -43 -11 0 -8 7 -17 15
-21 11 -4 15 -22 15 -71 0 -49 -4 -67 -15 -71 -8 -4 -15 -12 -15 -20 0 -10 14
-14 50 -14 50 0 64 12 39 37 -5 5 -9 36 -7 68 3 65 23 89 56 69 24 -15 30
-131 7 -140 -8 -3 -15 -12 -15 -20 0 -10 14 -14 50 -14 49 0 63 12 41 36 -5 5
-11 42 -13 81 -2 40 -8 77 -14 83 -14 14 -66 21 -89 11z"/>
<path d="M3182 1914 c-12 -8 -22 -10 -22 -5 0 6 -16 11 -35 11 -36 0 -50 -22
-20 -34 11 -4 15 -22 15 -71 0 -49 -4 -67 -15 -71 -8 -4 -15 -12 -15 -20 0
-10 15 -14 55 -14 42 0 55 3 55 15 0 8 -7 15 -15 15 -16 0 -18 9 -15 80 1 52
27 82 46 55 19 -26 44 -18 44 14 0 42 -37 54 -78 25z"/>
<path d="M3354 1921 c-64 -28 -87 -133 -41 -187 17 -20 32 -26 58 -26 19 1 55
1 82 1 35 0 47 4 47 15 0 8 -4 18 -10 21 -5 3 -10 42 -10 85 0 43 -4 81 -9 84
-18 11 -96 16 -117 7z m76 -94 c0 -65 -11 -87 -41 -87 -28 0 -49 29 -49 68 0
50 23 82 61 82 l29 0 0 -63z"/>
<path d="M4024 1920 c-33 -13 -54 -55 -54 -108 0 -87 59 -130 134 -98 42 17
56 47 56 114 0 52 -4 61 -40 85 -26 18 -62 21 -96 7z m74 -42 c18 -18 15 -103
-4 -122 -37 -37 -74 -5 -74 63 0 51 12 71 45 71 12 0 26 -5 33 -12z"/>
<path d="M4912 1921 c-7 -4 -35 -6 -63 -3 -41 4 -49 2 -49 -12 0 -9 7 -16 15
-16 16 0 18 -12 17 -95 -1 -27 -6 -51 -11 -53 -6 -2 -11 -10 -11 -18 0 -10 14
-14 50 -14 36 0 50 4 50 14 0 8 -7 16 -15 20 -11 4 -15 21 -15 60 0 61 18 89
54 84 19 -3 21 -10 24 -67 2 -36 -2 -69 -7 -74 -25 -25 -11 -37 39 -37 36 0
50 4 50 14 0 8 -7 16 -15 20 -11 4 -15 22 -15 76 0 57 -4 74 -20 90 -21 21
-55 26 -78 11z"/>
<path d="M5363 1920 c-35 -14 -57 -57 -56 -110 1 -62 16 -87 61 -100 49 -15
86 -1 112 42 59 97 -18 208 -117 168z m69 -47 c38 -34 14 -133 -32 -133 -28 0
-40 22 -40 75 0 71 30 96 72 58z"/>
<path d="M4430 1906 c0 -8 7 -16 15 -20 11 -4 15 -22 15 -71 0 -49 -4 -67 -15
-71 -8 -4 -15 -12 -15 -20 0 -10 14 -14 50 -14 36 0 50 4 50 14 0 8 -7 17 -15
20 -13 4 -14 16 -9 55 3 28 3 66 0 85 -6 33 -10 36 -41 36 -23 0 -35 -5 -35
-14z"/>
<path d="M4680 1906 c0 -8 7 -16 15 -20 11 -4 15 -22 15 -71 0 -49 -4 -67 -15
-71 -8 -4 -15 -12 -15 -20 0 -10 14 -14 50 -14 37 0 50 4 50 14 0 8 -4 18 -10
21 -5 3 -10 44 -10 91 l0 84 -40 0 c-28 0 -40 -4 -40 -14z"/>
<path d="M614 1756 c-11 -29 1 -51 30 -54 16 -2 32 0 37 5 4 4 -6 8 -24 8 -25
0 -33 5 -35 22 -3 19 2 22 35 26 l38 4 -38 1 c-25 1 -40 -3 -43 -12z"/>
<path d="M720 1735 c0 -35 0 -35 43 -33 l42 1 -37 4 c-47 5 -50 20 -5 26 l32
4 -32 1 c-18 1 -33 6 -33 11 0 6 15 12 33 14 31 4 31 4 -5 5 -37 2 -38 1 -38
-33z"/>
<path d="M821 1733 c2 -32 3 -33 6 -10 l4 28 35 -26 34 -26 -1 38 c-1 35 -2
36 -8 10 l-6 -29 -24 26 c-33 35 -41 33 -40 -11z"/>
<path d="M937 1762 c6 -4 13 -21 16 -37 l4 -30 2 32 c0 21 7 33 19 36 9 3 1 5
-18 6 -19 0 -30 -3 -23 -7z"/>
<path d="M1011 1733 c1 -21 3 -30 6 -20 5 20 52 24 70 6 9 -9 11 -7 7 7 -4 16
-12 19 -40 16 -19 -2 -34 0 -34 6 0 6 17 13 38 15 l37 4 -42 1 -43 2 1 -37z"/>
<path d="M1144 1758 c-4 -7 -14 -24 -23 -38 -11 -19 -11 -22 -1 -12 8 6 26 12
40 12 14 0 32 -6 40 -12 7 -7 4 3 -8 22 -24 39 -37 47 -48 28z m26 -18 c0 -5
-7 -10 -16 -10 -8 0 -12 5 -9 10 3 6 10 10 16 10 5 0 9 -4 9 -10z"/>
<path d="M1251 1733 c1 -31 2 -33 8 -15 l6 24 19 -21 19 -21 15 22 c15 21 16
21 23 2 6 -14 8 -10 8 16 l0 35 -23 -28 -23 -29 -21 26 c-27 35 -32 33 -31
-11z"/>
<path d="M1372 1738 c3 -31 5 -33 43 -33 38 0 40 2 40 30 0 28 -3 30 -43 33
l-43 3 3 -33z m76 0 c-2 -18 -10 -23 -33 -23 -23 0 -31 5 -33 23 -3 19 1 22
33 22 32 0 36 -3 33 -22z"/>
<path d="M1480 1735 c0 -34 1 -35 39 -35 35 0 39 3 43 30 6 38 3 40 -44 40
-37 0 -38 -1 -38 -35z m70 15 c0 -5 -11 -10 -24 -10 -14 0 -28 5 -31 10 -4 6
7 10 24 10 17 0 31 -4 31 -10z m0 -30 c0 -5 -13 -10 -30 -10 -16 0 -30 5 -30
10 0 6 14 10 30 10 17 0 30 -4 30 -10z"/>
<path d="M1580 1741 c0 -17 5 -33 10 -36 6 -4 10 8 10 29 0 20 -4 36 -10 36
-5 0 -10 -13 -10 -29z"/>
<path d="M1622 1738 c-2 -37 -1 -38 31 -37 29 2 29 2 5 6 -22 3 -28 10 -31 36
-4 31 -4 31 -5 -5z"/>
<path d="M1703 1735 c0 -22 2 -30 4 -17 2 12 2 30 0 40 -3 9 -5 -1 -4 -23z"/>
<path d="M1731 1733 c2 -31 3 -33 6 -10 2 15 7 27 9 27 3 0 21 -12 40 -26 l34
-26 -1 38 c-2 30 -3 33 -6 11 l-4 -27 -33 25 c-18 14 -36 25 -39 25 -4 0 -6
-17 -6 -37z"/>
<path d="M1840 1735 l0 -36 43 3 c39 3 42 5 42 33 0 28 -3 30 -42 33 l-43 3 0
-36z m78 3 c-2 -18 -10 -23 -33 -23 -23 0 -31 5 -33 23 -3 19 1 22 33 22 32 0
36 -3 33 -22z"/>
<path d="M1945 1750 c-10 -30 13 -52 49 -48 27 3 31 7 34 36 3 31 2 32 -37 32
-31 0 -41 -4 -46 -20z m75 -15 c0 -21 -5 -25 -30 -25 -25 0 -30 4 -30 25 0 21
5 25 30 25 25 0 30 -4 30 -25z"/>
<path d="M1271 1614 c0 -11 3 -14 6 -6 3 7 2 16 -1 19 -3 4 -6 -2 -5 -13z"/>
<path d="M1655 1610 c-3 -6 1 -7 9 -4 18 7 21 14 7 14 -6 0 -13 -4 -16 -10z"/>
</g>
</svg>
