<?xml version="1.0" standalone="no"?>
<!DOCTYPE svg PUBLIC "-//W3C//DTD SVG 20010904//EN"
 "http://www.w3.org/TR/2001/REC-SVG-20010904/DTD/svg10.dtd">
<svg version="1.0" xmlns="http://www.w3.org/2000/svg"
 width="500.000000pt" height="500.000000pt" viewBox="0 0 500.000000 500.000000"
 preserveAspectRatio="xMidYMid meet">

<g transform="translate(0.000000,500.000000) scale(0.100000,-0.100000)"
fill="#000000" stroke="none">
<path d="M1945 3450 c-137 -15 -340 -72 -652 -184 -48 -17 -93 -26 -133 -26
-95 0 -362 -30 -397 -45 -28 -12 -33 -19 -33 -48 0 -19 7 -40 15 -47 12 -10
11 -18 -10 -61 -58 -113 -63 -216 -15 -294 26 -42 25 -58 -2 -70 -52 -23 -12
-61 120 -115 55 -23 90 -45 122 -79 25 -26 56 -54 70 -62 23 -15 14 -16 -130
-23 -85 -4 -159 -11 -163 -15 -18 -18 447 -23 1823 -19 902 2 1431 7 1440 13
23 14 -44 24 -177 24 -62 1 -113 5 -113 10 0 25 71 39 230 44 91 3 192 10 225
17 118 21 167 59 131 99 -29 32 -29 73 -2 141 14 35 26 72 26 82 0 30 -75 103
-163 160 -211 135 -486 192 -902 187 l-160 -2 -220 110 c-303 150 -393 177
-675 202 -126 12 -151 12 -255 1z m225 -59 c92 -29 224 -114 353 -228 l48 -43
-31 0 c-22 0 -48 14 -91 50 -33 28 -93 72 -132 98 -184 123 -267 128 -650 36
-154 -37 -197 -58 -62 -30 113 24 115 23 115 -24 0 -45 -2 -46 -79 -29 -27 6
-96 13 -152 17 l-103 7 189 63 c307 102 463 124 595 83z m200 2 c43 -7 44 -7
15 -14 -56 -13 -110 -8 -145 12 l-35 20 60 -6 c33 -3 80 -9 105 -12z m-757
-207 c54 -8 100 -16 102 -18 2 -2 0 -37 -3 -78 l-7 -75 -53 -7 c-72 -11 -120
-32 -133 -61 -28 -62 56 -210 144 -255 52 -27 38 -26 597 -57 146 -8 277 -18
290 -23 55 -21 -101 -24 -571 -11 l-483 14 -13 74 c-16 99 -53 170 -116 227
-29 26 -42 42 -31 36 25 -13 114 -110 114 -123 0 -5 5 -9 11 -9 17 0 -33 80
-71 113 -61 53 -135 81 -220 81 -92 -1 -156 -26 -217 -87 -60 -58 -54 -70 7
-13 27 25 52 46 56 46 3 0 -17 -21 -45 -46 -62 -56 -91 -108 -98 -180 -3 -30
-9 -54 -14 -54 -17 0 -90 95 -101 132 -10 34 -8 48 17 119 27 79 30 141 10
205 -6 19 -1 22 57 34 204 41 557 48 771 16z m377 -61 c69 -9 230 -18 358 -22
128 -3 235 -10 239 -15 3 -6 11 -32 18 -60 l14 -50 -25 6 c-69 18 -191 27
-410 33 l-240 6 -16 28 c-30 51 -128 48 -148 -6 -6 -15 -17 -25 -30 -25 -17 0
-20 6 -20 44 0 24 3 57 6 73 l6 30 61 -13 c34 -8 118 -21 187 -29z m1370 -30
c150 -6 227 -17 339 -51 118 -36 233 -92 325 -158 43 -31 81 -55 84 -52 10 11
-113 119 -186 161 -92 54 -82 57 36 10 91 -37 226 -122 276 -173 26 -28 27
-33 17 -65 -13 -38 -12 -38 -164 -53 -77 -7 -107 -26 -138 -85 -23 -46 -42
-44 -29 3 22 76 79 107 211 115 55 3 102 10 105 15 3 4 -54 8 -126 8 -106 0
-138 -3 -161 -17 -34 -21 -69 -89 -69 -138 0 -46 27 -63 118 -71 73 -7 97 -25
50 -38 -33 -8 -407 -31 -413 -24 -3 3 1 31 10 64 8 32 15 83 16 114 1 42 3 49
9 30 7 -21 8 -19 9 17 2 104 -87 236 -196 289 -43 21 -75 29 -137 32 -94 5
-161 -15 -242 -73 -46 -33 -54 -35 -129 -35 -55 0 -75 -3 -65 -10 8 -5 47 -10
87 -10 67 0 74 2 113 35 23 19 43 35 45 35 2 0 -22 -26 -54 -57 -62 -62 -86
-115 -98 -210 l-6 -53 -68 0 -67 0 -32 94 c-42 127 -96 198 -166 220 -15 5
-25 23 -37 66 -10 33 -17 62 -17 64 0 12 440 13 750 1z m-1466 -33 c2 -4 -11
-6 -30 -4 -19 2 -34 6 -34 8 0 8 59 4 64 -4z m1443 -48 c-3 -3 -12 -4 -19 -1
-8 3 -5 6 6 6 11 1 17 -2 13 -5z m-60 -10 c-3 -3 -12 -4 -19 -1 -8 3 -5 6 6 6
11 1 17 -2 13 -5z m130 0 c-3 -3 -12 -4 -19 -1 -8 3 -5 6 6 6 11 1 17 -2 13
-5z m-2204 -11 c-13 -2 -35 -2 -50 0 -16 2 -5 4 22 4 28 0 40 -2 28 -4z m2022
-3 c-27 -12 -43 -12 -25 0 8 5 22 9 30 9 10 0 8 -3 -5 -9z m-799 -29 c71 -11
146 -27 166 -37 34 -16 36 -19 41 -78 3 -33 4 -62 2 -64 -1 -2 -58 2 -126 7
-187 15 -415 24 -407 16 3 -4 109 -20 235 -36 294 -37 298 -38 298 -69 0 -23
-4 -25 -52 -28 -29 -2 -195 1 -370 7 l-318 9 -28 34 c-55 65 -140 229 -125
243 2 2 37 8 78 14 115 15 453 5 606 -18z m1074 3 c0 -2 -9 0 -20 6 -11 6 -20
13 -20 16 0 2 9 0 20 -6 11 -6 20 -13 20 -16z m-1780 -16 c0 -22 57 -135 100
-198 l41 -60 -28 0 c-51 0 -104 21 -143 56 -41 38 -74 106 -68 145 5 38 98 91
98 57z m1887 -83 c18 -26 33 -52 33 -59 -1 -6 -10 6 -21 28 -12 21 -42 59 -67
85 -37 36 -40 40 -12 20 19 -14 49 -48 67 -74z m-277 35 c-216 -28 -263 -322
-66 -411 23 -10 35 -19 28 -19 -25 0 -89 39 -120 74 -34 39 -52 90 -52 148 0
114 107 220 219 217 l46 -2 -55 -7z m-2132 -7 c-10 -2 -26 -2 -35 0 -10 3 -2
5 17 5 19 0 27 -2 18 -5z m-84 -17 c-46 -20 -101 -90 -114 -147 -23 -93 32
-209 114 -245 17 -7 25 -13 18 -14 -38 -1 -106 58 -137 120 -34 67 -16 180 38
239 28 30 77 61 97 61 8 -1 1 -7 -16 -14z m1597 -58 c10 -21 19 -40 19 -43 0
-3 -16 -5 -35 -5 -30 0 -35 3 -35 23 0 12 -3 40 -7 62 l-6 40 23 -20 c12 -11
31 -37 41 -57z m769 27 c19 -19 32 -35 29 -35 -3 0 -20 16 -39 35 -19 19 -32
35 -29 35 3 0 20 -16 39 -35z m-2154 -17 l29 -33 -32 29 c-31 28 -38 36 -30
36 2 0 16 -15 33 -32z m2211 -90 c-3 -8 -6 -5 -6 6 -1 11 2 17 5 13 3 -3 4
-12 1 -19z m120 0 c-3 -8 -6 -5 -6 6 -1 11 2 17 5 13 3 -3 4 -12 1 -19z
m-2280 -20 c-3 -8 -6 -5 -6 6 -1 11 2 17 5 13 3 -3 4 -12 1 -19z m1349 -17
c58 -26 64 -41 17 -41 -62 0 -83 9 -83 36 0 29 12 30 66 5z m809 -88 c-9 -24
-28 -57 -42 -74 -28 -33 -92 -69 -120 -69 -10 1 -2 7 18 14 86 31 147 111 151
201 1 39 1 39 5 6 3 -19 -3 -54 -12 -78z m-2336 83 c17 -20 2 -48 -23 -44 -24
3 -34 37 -14 49 18 12 24 11 37 -5z m2168 -2 c7 -20 -22 -45 -43 -37 -14 5
-19 35 -7 46 12 13 44 7 50 -9z m84 -61 c-9 -16 -10 -16 -11 -1 0 9 3 25 7 35
7 16 8 17 11 1 2 -10 -1 -25 -7 -35z m-2081 -30 c-11 -17 -11 -17 -6 0 3 10 7
26 7 35 1 15 2 15 6 0 2 -10 -1 -25 -7 -35z m1634 15 c20 -64 20 -63 -50 -60
-59 3 -66 6 -75 29 -5 13 -9 29 -9 34 0 14 130 11 134 -3z m-1044 -43 c140 -8
406 -21 590 -30 370 -17 484 -25 477 -31 -8 -9 -388 -4 -847 11 -446 14 -456
14 -493 -5 -29 -16 -58 -20 -127 -20 l-90 0 5 25 c3 14 7 36 10 49 l5 25 108
-5 c59 -3 222 -11 362 -19z m-609 -14 c-14 -25 -79 -81 -94 -81 -7 0 2 9 20
19 17 11 42 34 54 50 26 35 35 40 20 12z m2847 12 c-21 -2 -57 -2 -80 0 -24 2
-7 4 37 4 44 0 63 -2 43 -4z m36 -33 c-16 -16 -116 -18 -121 -2 -4 9 13 12 63
12 46 0 65 -3 58 -10z m-3031 -77 c-7 -2 -21 -2 -30 0 -10 3 -4 5 12 5 17 0
24 -2 18 -5z m1962 -38 l30 -25 -829 0 -829 0 44 24 44 25 755 0 755 0 30 -24z"/>
<path d="M1080 3183 c-73 -7 -220 -34 -242 -43 -16 -8 -1 -8 52 -3 41 4 195 8
342 8 235 0 293 4 277 19 -18 18 -313 31 -429 19z"/>
<path d="M3600 3016 c0 -20 98 -89 189 -134 64 -32 82 -36 149 -37 49 0 76 4
79 12 5 14 -98 85 -170 119 -53 23 -177 54 -223 54 -14 0 -24 -6 -24 -14z
m113 -31 c18 -8 53 -30 80 -49 30 -22 65 -37 95 -42 76 -11 96 -25 28 -20 -61
5 -119 29 -216 91 -56 35 -48 48 13 20z"/>
<path d="M637 2222 c-12 -13 -17 -37 -17 -85 0 -90 8 -97 120 -97 80 0 90 2
104 22 9 12 16 28 16 35 0 18 -37 16 -44 -2 -4 -12 -23 -15 -81 -15 l-76 0 3
58 3 57 69 3 c55 2 72 0 78 -13 11 -18 48 -20 48 -2 0 7 -9 23 -20 35 -18 19
-31 22 -104 22 -68 0 -86 -3 -99 -18z"/>
<path d="M900 2140 l0 -100 116 0 c105 0 115 2 112 18 -3 14 -17 17 -96 20
-84 2 -92 4 -92 22 0 18 7 20 80 20 73 0 80 2 80 20 0 18 -7 20 -80 20 -73 0
-80 2 -80 20 0 18 8 20 93 22 74 2 92 6 92 18 0 12 -20 16 -112 18 l-113 3 0
-101z"/>
<path d="M1160 2140 c0 -93 1 -100 20 -100 18 0 20 7 20 71 l0 70 86 -70 c47
-39 94 -71 105 -71 17 0 19 8 19 100 0 93 -1 100 -20 100 -17 0 -19 -8 -22
-70 l-3 -70 -87 70 c-48 38 -94 70 -103 70 -12 0 -15 -17 -15 -100z"/>
<path d="M1430 2220 c0 -17 7 -20 45 -20 l45 0 0 -80 c0 -73 2 -80 20 -80 18
0 20 7 20 80 l0 80 45 0 c38 0 45 3 45 20 0 19 -7 20 -110 20 -103 0 -110 -1
-110 -20z"/>
<path d="M1670 2140 c0 -93 1 -100 20 -100 16 0 20 7 20 35 l0 36 78 -3 77 -3
3 -32 c2 -25 8 -33 22 -33 17 0 19 8 19 85 0 113 -2 115 -135 115 l-104 0 0
-100z m200 35 c0 -25 -1 -25 -80 -25 -79 0 -80 0 -80 25 0 25 1 25 80 25 79 0
80 0 80 -25z"/>
<path d="M1995 2143 c-61 -92 -64 -98 -43 -101 15 -3 28 4 36 17 12 18 24 21
86 21 60 0 73 -3 84 -20 7 -12 23 -20 38 -20 24 0 22 4 -43 100 -37 55 -74
100 -80 100 -7 0 -42 -44 -78 -97z m115 -15 c0 -5 -18 -8 -41 -8 l-40 0 22 31
22 31 18 -23 c10 -13 19 -27 19 -31z"/>
<path d="M2310 2140 c0 -92 1 -100 20 -100 16 0 19 8 22 57 l3 57 39 -57 c22
-31 46 -57 55 -57 9 0 34 26 56 56 l40 56 3 -56 c3 -48 6 -56 22 -56 19 0 20
8 20 100 0 89 -2 100 -17 100 -11 -1 -39 -31 -67 -70 -27 -39 -52 -70 -56 -70
-4 0 -29 31 -56 70 -28 39 -56 69 -66 70 -16 0 -18 -11 -18 -100z"/>
<path d="M2647 2222 c-12 -13 -17 -37 -17 -85 0 -90 8 -97 120 -97 107 0 120
11 120 100 0 85 -18 100 -124 100 -68 0 -86 -3 -99 -18z m179 -46 c3 -13 4
-38 2 -57 l-3 -34 -77 -3 -78 -3 0 54 c0 29 3 57 7 60 3 4 37 7 74 7 64 0 69
-2 75 -24z"/>
<path d="M2910 2140 l0 -100 109 0 c75 0 112 4 119 13 16 19 13 155 -5 172
-11 11 -40 15 -119 15 l-104 0 0 -100z m200 40 c0 -18 -7 -20 -80 -20 -73 0
-80 2 -80 20 0 18 7 20 80 20 73 0 80 -2 80 -20z m0 -80 c0 -18 -7 -20 -80
-20 -73 0 -80 2 -80 20 0 18 7 20 80 20 73 0 80 -2 80 -20z"/>
<path d="M3190 2140 c0 -93 1 -100 20 -100 19 0 20 7 20 100 0 93 -1 100 -20
100 -19 0 -20 -7 -20 -100z"/>
<path d="M3280 2140 l0 -100 90 0 c83 0 90 1 90 20 0 18 -7 20 -70 20 l-70 0
0 80 c0 73 -2 80 -20 80 -19 0 -20 -7 -20 -100z"/>
<path d="M3490 2140 c0 -93 1 -100 20 -100 19 0 20 7 20 100 0 93 -1 100 -20
100 -19 0 -20 -7 -20 -100z"/>
<path d="M3580 2140 c0 -93 1 -100 20 -100 17 0 19 8 22 66 l3 66 80 -66 c111
-91 115 -90 115 34 0 93 -1 100 -20 100 -18 0 -20 -7 -20 -71 l0 -70 -86 70
c-48 39 -93 71 -100 71 -11 0 -14 -22 -14 -100z"/>
<path d="M3870 2140 l0 -100 103 0 c128 0 137 7 137 98 0 92 -13 102 -140 102
l-100 0 0 -100z m195 0 l0 -55 -77 -3 -78 -3 0 61 0 61 78 -3 77 -3 0 -55z"/>
<path d="M4160 2220 c-25 -25 -28 -124 -4 -158 14 -20 24 -22 103 -22 111 0
121 8 121 103 0 86 -14 97 -122 97 -65 0 -81 -3 -98 -20z m178 -83 l3 -58 -78
3 -78 3 -3 44 c-5 70 -2 72 80 69 l73 -3 3 -58z"/>
<path d="M1566 1854 c-16 -16 -21 -50 -10 -78 9 -22 112 -23 121 -1 7 21 -4
32 -19 17 -7 -7 -27 -12 -45 -12 -30 0 -33 3 -33 30 0 28 2 30 40 30 22 0 40
-4 40 -10 0 -5 5 -10 10 -10 6 0 10 7 10 15 0 33 -86 48 -114 19z"/>
<path d="M1742 1819 c-35 -53 -35 -72 -2 -51 24 15 76 16 85 2 3 -5 13 -10 21
-10 10 0 3 17 -22 55 -20 30 -40 55 -43 55 -3 0 -21 -23 -39 -51z m47 -18
c-15 -5 -22 6 -14 19 6 9 10 9 16 -1 5 -8 4 -15 -2 -18z"/>
<path d="M1890 1815 c0 -30 5 -55 10 -55 6 0 10 7 10 15 0 11 11 15 40 15 29
0 40 -4 40 -15 0 -8 6 -15 14 -15 17 0 20 77 4 98 -6 7 -33 12 -64 12 l-54 0
0 -55z m100 15 c0 -5 -18 -10 -40 -10 -22 0 -40 5 -40 10 0 6 18 10 40 10 22
0 40 -4 40 -10z"/>
<path d="M2116 1857 c-13 -10 -16 -20 -12 -35 6 -19 15 -22 57 -22 30 0 49 -4
49 -11 0 -8 -17 -10 -54 -6 -45 4 -54 3 -49 -9 4 -10 22 -14 64 -14 59 0 59 0
59 30 0 29 -1 30 -50 30 -30 0 -50 4 -50 11 0 8 17 10 50 7 36 -4 50 -2 50 7
0 27 -83 35 -114 12z"/>
<path d="M2270 1815 c0 -30 5 -55 10 -55 6 0 10 9 10 20 0 17 7 20 40 20 33 0
40 -3 40 -20 0 -11 5 -20 10 -20 6 0 10 25 10 55 0 30 -4 55 -10 55 -5 0 -10
-11 -10 -25 0 -22 -4 -25 -40 -25 -36 0 -40 3 -40 25 0 14 -4 25 -10 25 -5 0
-10 -25 -10 -55z"/>
<path d="M2446 1857 c-13 -9 -17 -23 -14 -52 l3 -40 54 -3 c61 -4 71 4 71 55
0 22 -6 36 -19 43 -27 14 -74 13 -95 -3z m84 -47 c0 -28 -3 -30 -35 -30 -22 0
-38 6 -41 15 -11 28 4 45 41 45 32 0 35 -2 35 -30z"/>
<path d="M2580 1865 c0 -15 52 -105 60 -105 5 0 17 15 26 32 l17 33 15 -33 c9
-17 21 -32 27 -32 11 0 55 81 55 100 0 22 -21 8 -38 -25 l-18 -36 -17 36 c-20
43 -31 44 -47 5 -7 -16 -16 -30 -20 -30 -4 0 -13 14 -20 30 -7 17 -19 30 -26
30 -8 0 -14 -2 -14 -5z"/>
<path d="M2810 1815 c0 -30 5 -55 10 -55 6 0 10 7 10 15 0 11 11 15 40 15 29
0 40 -4 40 -15 0 -8 6 -15 14 -15 17 0 20 77 4 98 -6 7 -33 12 -64 12 l-54 0
0 -55z m100 15 c0 -5 -18 -10 -40 -10 -22 0 -40 5 -40 10 0 6 18 10 40 10 22
0 40 -4 40 -10z"/>
<path d="M2986 1857 c-13 -9 -17 -23 -14 -52 l3 -40 54 -3 c61 -4 71 4 71 55
0 22 -6 36 -19 43 -27 14 -74 13 -95 -3z m84 -47 c0 -28 -3 -30 -35 -30 -37 0
-52 17 -41 45 3 9 19 15 41 15 32 0 35 -2 35 -30z"/>
<path d="M3148 1859 c-11 -6 -18 -22 -18 -42 0 -51 10 -59 71 -55 l54 3 3 40
c3 29 -1 43 -14 52 -21 15 -72 17 -96 2z m87 -49 c0 -22 -5 -25 -37 -28 -36
-3 -38 -2 -38 28 0 30 2 31 38 28 32 -3 37 -6 37 -28z"/>
<path d="M3297 1864 c-4 -4 -7 -29 -7 -56 0 -36 4 -48 15 -48 10 0 15 10 15
28 l1 27 17 -27 c9 -16 22 -28 28 -28 7 0 22 12 33 28 l20 27 1 -27 c0 -16 5
-28 10 -28 6 0 10 25 10 55 0 30 -4 55 -10 55 -5 0 -10 -3 -10 -7 -1 -5 -12
-21 -25 -38 l-25 -30 -33 38 c-18 21 -35 35 -40 31z"/>
</g>
</svg>
